<?xml version="1.0" encoding="UTF-8" standalone="no"?>
<svg
   xmlns:dc="http://purl.org/dc/elements/1.1/"
   xmlns:cc="http://creativecommons.org/ns#"
   xmlns:rdf="http://www.w3.org/1999/02/22-rdf-syntax-ns#"
   xmlns:svg="http://www.w3.org/2000/svg"
   xmlns="http://www.w3.org/2000/svg"
   xmlns:sodipodi="http://sodipodi.sourceforge.net/DTD/sodipodi-0.dtd"
   xmlns:inkscape="http://www.inkscape.org/namespaces/inkscape"
   id="Layer_1"
   version="1.1"
   viewBox="0 0 649.82135 141.17866"
   sodipodi:docname="logo.svg"
   width="649.82135"
   height="141.17867"
   inkscape:version="0.92.4 (5da689c313, 2019-01-14)">
  <metadata
     id="metadata39">
    <rdf:RDF>
      <cc:Work
         rdf:about="">
        <dc:format>image/svg+xml</dc:format>
        <dc:type
           rdf:resource="http://purl.org/dc/dcmitype/StillImage" />
        <dc:title></dc:title>
      </cc:Work>
    </rdf:RDF>
  </metadata>
  <sodipodi:namedview
     pagecolor="#ffffff"
     bordercolor="#666666"
     borderopacity="1"
     objecttolerance="10"
     gridtolerance="10"
     guidetolerance="10"
     inkscape:pageopacity="0"
     inkscape:pageshadow="2"
     inkscape:window-width="1920"
     inkscape:window-height="1027"
     id="namedview37"
     showgrid="false"
     units="px"
     inkscape:zoom="0.41902624"
     inkscape:cx="619.86983"
     inkscape:cy="282.03178"
     inkscape:window-x="1912"
     inkscape:window-y="-8"
     inkscape:window-maximized="1"
     inkscape:current-layer="Layer_1" />
  <!-- Generator: Adobe Illustrator 29.0.1, SVG Export Plug-In . SVG Version: 2.1.0 Build 192)  -->
  <defs
     id="defs4">
    <style
       id="style2">
      .st0 {
        fill: #df1a22;
      }
    </style>
  </defs>
  <g
     id="g862"
     transform="matrix(1.140437,0,0,1.140437,-152.93243,-369.84744)">
    <path
       id="path6"
       d="m 209.4,409.1 -4.7,-13.3 h -25 L 175,409.1 H 161.9 L 185.4,347 h 14.1 l 23.5,62.1 z m -26,-23.8 H 201 l -8.8,-24.8 -8.7,24.8 z"
       inkscape:connector-curvature="0" />
    <path
       id="path8"
       d="m 361.2,392.2 c -1.3,10.5 -8.2,17.1 -18.7,18 l -1.8,3.9 h 0.5 c 4.3,0 8.5,1.7 8.5,7.3 0,5.6 -4.9,8.1 -10.9,8.1 -6,0 -5.3,-0.6 -6.4,-1 v -5 c 1.2,0.5 2.9,0.8 4.3,0.8 3.1,0 4.5,-1 4.5,-2.9 0,-1.9 -1.4,-2.7 -3.5,-2.7 -2.1,0 -2.7,0.2 -3.5,0.3 v -3.7 l 2.5,-5.2 c -12,-1.5 -19.1,-10.4 -19.1,-23 V 386 c 0,-13.8 8.5,-23.1 22.6,-23.1 14.1,0 19.7,6.8 21,18.1 h -12.1 c -0.8,-5.2 -3.3,-8.6 -9.1,-8.6 -5.8,0 -10,4.9 -10,13.6 v 1.1 c 0,8.7 3.2,13.6 10,13.6 6.8,0 8.4,-3.5 9.2,-8.6 h 12.1 z"
       inkscape:connector-curvature="0" />
    <path
       id="path10"
       d="M 367.2,409.1 V 364 h 12.2 v 45.1 z"
       inkscape:connector-curvature="0" />
    <path
       id="path12"
       d="m 399.2,393 v 16.1 H 387 v -62.5 h 12.2 v 33.6 l 16,-16.2 h 14.3 l -17.4,17.3 18.1,27.8 h -13.6 l -13.1,-20.4 z"
       inkscape:connector-curvature="0" />
    <path
       id="path14"
       d="M 446.2,409.1 V 347 h 27.2 c 12.9,0 22.5,6.8 22.5,19.5 v 1 c 0,9.5 -5.2,15.7 -13.3,18.2 l 15.5,23.4 h -14.5 l -14.1,-22 h -10.6 v 22 z m 12.7,-32.7 h 13.2 c 6.1,0 10.5,-2.7 10.5,-8.8 v -1 c 0,-6.2 -4.4,-8.8 -10.5,-8.8 h -13.2 v 18.7 z"
       inkscape:connector-curvature="0" />
    <path
       id="path16"
       d="m 497.9,396.5 c 0,-7.7 4.9,-12.2 13.1,-13.4 l 16.6,-2.4 v -2.6 c 0,-3.8 -2.4,-6 -7.8,-6 -5.4,0 -8.1,1.9 -8.6,5.8 h -11.5 c 0.7,-9.6 8.7,-15 20.4,-15 11.7,0 19.3,6 19.3,15.5 v 30.8 h -11.3 l -0.4,-6.9 c -2.7,4.9 -8,8 -14.6,8 -6.6,0 -15.2,-5.8 -15.2,-13.7 z m 29.8,-3.9 V 389 l -12.2,1.7 c -3.8,0.5 -5.7,2.1 -5.7,5.2 0,3.1 2.6,5.2 7.1,5.2 4.5,0 10.8,-3.5 10.8,-8.5 z"
       inkscape:connector-curvature="0" />
    <path
       id="path18"
       d="m 272.4,396.5 c 0,-7.7 4.9,-12.2 13.1,-13.4 l 16.6,-2.4 v -2.6 c 0,-3.8 -2.4,-6 -7.8,-6 -5.4,0 -8.1,1.9 -8.6,5.8 h -11.5 c 0.7,-9.6 8.7,-15 20.4,-15 11.7,0 19.3,6 19.3,15.5 v 30.8 h -11.3 l -0.4,-6.9 c -2.7,4.9 -8,8 -14.6,8 -6.6,0 -15.2,-5.8 -15.2,-13.7 z m 29.8,-3.9 V 389 l -12.2,1.7 c -3.8,0.5 -5.7,2.1 -5.7,5.2 0,3.1 2.6,5.2 7.1,5.2 4.5,0 10.8,-3.5 10.8,-8.5 z"
       inkscape:connector-curvature="0" />
    <path
       id="path20"
       d="M 544.7,387.1 V 386 c 0,-13.3 7.3,-23.1 19.3,-23.1 12,0 11.4,3.1 14,7.2 v -23.4 h 12.3 v 62.5 h -11.4 l -0.4,-7.1 c -2.1,4 -6.9,8.2 -14.3,8.2 -12.2,0 -19.7,-9.7 -19.7,-23.2 z m 33.8,0 V 386 c 0,-8.8 -3.7,-13.7 -10.7,-13.7 -7,0 -10.7,4.9 -10.7,13.7 v 1.1 c 0,8.8 3.8,13.7 10.7,13.7 6.9,0 10.7,-4.9 10.7,-13.7 z"
       inkscape:connector-curvature="0" />
    <path
       id="path22"
       d="m 604.6,425.6 6.7,-16.9 -17.1,-44.7 h 12.9 l 10.7,31.5 10.3,-31.5 h 12.5 l -23.4,61.6 z"
       inkscape:connector-curvature="0" />
    <path
       id="path24"
       d="M 639.9,387.1 V 386 c 0,-13.6 9.2,-23.1 23.2,-23.1 14,0 23.2,9.4 23.2,23.2 v 1 c 0,13.7 -9.2,23.2 -23.2,23.2 -14,0 -23.2,-9.4 -23.2,-23.2 z m 33.9,0 v -1 c 0,-8.8 -3.6,-13.6 -10.8,-13.6 -7.2,0 -10.8,4.8 -10.8,13.6 v 1.1 c 0,8.8 3.6,13.6 10.8,13.6 7.2,0 10.8,-4.8 10.8,-13.6 z"
       inkscape:connector-curvature="0" />
    <g
       id="g62">
      <path
         inkscape:connector-curvature="0"
         d="m 688.9,401.2 c 0,-4.1 3.4,-7.5 7.5,-7.5 4.1,0 7.5,3.4 7.5,7.5 0,4.1 -3.4,7.5 -7.5,7.5 -4.1,0 -7.5,-3.4 -7.5,-7.5"
         id="path64" />
    </g>
    <g
       id="g32">
      <path
         style="fill:#df1a22"
         inkscape:connector-curvature="0"
         id="path28"
         d="m 148.9,350.1 v -7.2 c -9.4,0.6 -14.8,5.3 -14.8,15.4 v 0 13.9 h 14.6 v -13.9 h -6.5 c 0,-5.3 2,-7.7 6.7,-8.2 z"
         class="st0" />
      <path
         style="fill:#df1a22"
         inkscape:connector-curvature="0"
         id="path30"
         d="m 167.9,350.1 v -7.2 c -9.4,0.6 -14.8,5.3 -14.8,15.4 v 0 13.9 h 14.6 v -13.9 h -6.5 c 0,-5.3 2,-7.7 6.7,-8.2 z"
         class="st0" />
    </g>
    <path
       id="path34"
       d="m 224.9,423.7 v -59.2 h 11.3 l 0.3,6.8 c 2.1,-4 7.1,-7.9 14.3,-7.9 11.9,0 19.1,9.7 19.1,22.8 v 1.1 c 0,13.2 -7.3,22.9 -19.3,22.9 -12,0 -11.1,-3.3 -13.5,-7.4 v 21 h -12.2 z m 32.8,-36.4 v -1.1 c 0,-8.7 -3.6,-13.5 -10.5,-13.5 -6.9,0 -10.5,4.8 -10.5,13.5 v 1.1 c 0,8.7 3.7,13.5 10.5,13.5 6.8,0 10.5,-4.8 10.5,-13.5 z"
       inkscape:connector-curvature="0" />
  </g>
</svg>
